HIERARCHY
ROOT Hips
{
    OFFSET   0.000000   0.000000   0.000000
    CHANNELS 6 Xposition Yposition Zposition Zrotation Xrotation Yrotation
    JOINT Chest
    {
        OFFSET   0.000000   8.007230   0.000000
        CHANNELS 3 Zrotation Xrotation Yrotation
        JOINT Chest2
        {
            OFFSET   0.000000  22.077100   0.000000
            CHANNELS 3 Zrotation Xrotation Yrotation
            JOINT Neck
            {
                OFFSET   0.000000  23.254800  -0.000021
                CHANNELS 3 Zrotation Xrotation Yrotation
                JOINT Head
                {
                    OFFSET   0.000000  14.370000   1.956610
                    CHANNELS 3 Zrotation Xrotation Yrotation
                    End Site
                    {
                        OFFSET   0.000000  19.566000   0.000000
                    }
                }
            }
            JOINT LeftCollar
            {
                OFFSET   3.911900  19.017000  -0.467063
                CHANNELS 3 Zrotation Xrotation Yrotation
                JOINT LeftShoulder
                {
                    OFFSET  10.383700   0.000000   0.000000
                    CHANNELS 3 Zrotation Xrotation Yrotation
                    JOINT LeftElbow
                    {
                        OFFSET  26.662100   0.001529   0.000325
                        CHANNELS 3 Zrotation Xrotation Yrotation
                        JOINT LeftWrist
                        {
                            OFFSET  28.869000  -0.000011  -0.000096
                            CHANNELS 3 Zrotation Xrotation Yrotation
                            JOINT LeftFinger0
                            {
                                OFFSET   2.044650  -2.323460   3.252850
                                CHANNELS 3 Zrotation Xrotation Yrotation
                                JOINT LeftFinger01
                                {
                                    OFFSET   3.088130   0.000000   0.000000
                                    CHANNELS 3 Zrotation Xrotation Yrotation
                                    JOINT LeftFinger02
                                    {
                                        OFFSET   2.639460   0.000000   0.000000
                                        CHANNELS 3 Zrotation Xrotation Yrotation
                                        End Site
                                        {
                                            OFFSET   2.582190   0.000000   0.000000
                                        }
                                    }
                                }
                            }
                            JOINT LeftFinger1
                            {
                                OFFSET   8.364480   0.000000   3.252850
                                CHANNELS 3 Zrotation Xrotation Yrotation
                                JOINT LeftFinger11
                                {
                                    OFFSET   4.646930   0.000000   0.000000
                                    CHANNELS 3 Zrotation Xrotation Yrotation
                                    JOINT LeftFinger12
                                    {
                                        OFFSET   2.323460   0.000000   0.000000
                                        CHANNELS 3 Zrotation Xrotation Yrotation
                                        End Site
                                        {
                                            OFFSET   2.273050   0.000000   0.000000
                                        }
                                    }
                                }
                            }
                            JOINT LeftFinger2
                            {
                                OFFSET   8.364480   0.000016   1.078090
                                CHANNELS 3 Zrotation Xrotation Yrotation
                                JOINT LeftFinger21
                                {
                                    OFFSET   5.111620   0.000000   0.000000
                                    CHANNELS 3 Zrotation Xrotation Yrotation
                                    JOINT LeftFinger22
                                    {
                                        OFFSET   2.788160   0.000017   0.000000
                                        CHANNELS 3 Zrotation Xrotation Yrotation
                                        End Site
                                        {
                                            OFFSET   2.727660   0.000000   0.000000
                                        }
                                    }
                                }
                            }
                            JOINT LeftFinger3
                            {
                                OFFSET   7.899780   0.000015  -1.078090
                                CHANNELS 3 Zrotation Xrotation Yrotation
                                JOINT LeftFinger31
                                {
                                    OFFSET   4.646920   0.000000   0.000000
                                    CHANNELS 3 Zrotation Xrotation Yrotation
                                    JOINT LeftFinger32
                                    {
                                        OFFSET   2.323470   0.000000   0.000000
                                        CHANNELS 3 Zrotation Xrotation Yrotation
                                        End Site
                                        {
                                            OFFSET   2.273050   0.000000   0.000000
                                        }
                                    }
                                }
                            }
                            JOINT LeftFinger4
                            {
                                OFFSET   7.435090   0.000000  -3.252850
                                CHANNELS 3 Zrotation Xrotation Yrotation
                                JOINT LeftFinger41
                                {
                                    OFFSET   3.717550   0.000000   0.000000
                                    CHANNELS 3 Zrotation Xrotation Yrotation
                                    JOINT LeftFinger42
                                    {
                                        OFFSET   1.858760   0.000000   0.000000
                                        CHANNELS 3 Zrotation Xrotation Yrotation
                                        End Site
                                        {
                                            OFFSET   1.818440   0.000000   0.000000
                                        }
                                    }
                                }
                            }
                        }
                    }
                }
            }
            JOINT RightCollar
            {
                OFFSET  -3.911900  19.017000  -0.467062
                CHANNELS 3 Zrotation Xrotation Yrotation
                JOINT RightShoulder
                {
                    OFFSET -10.383700   0.000015   0.000000
                    CHANNELS 3 Zrotation Xrotation Yrotation
                    JOINT RightElbow
                    {
                        OFFSET -26.662100   0.001341   0.000385
                        CHANNELS 3 Zrotation Xrotation Yrotation
                        JOINT RightWrist
                        {
                            OFFSET -28.869000   0.000025  -0.000080
                            CHANNELS 3 Zrotation Xrotation Yrotation
                            JOINT RightFinger0
                            {
                                OFFSET  -2.044650  -2.323490   3.252850
                                CHANNELS 3 Zrotation Xrotation Yrotation
                                JOINT RightFinger01
                                {
                                    OFFSET  -3.088130   0.000000   0.000000
                                    CHANNELS 3 Zrotation Xrotation Yrotation
                                    JOINT RightFinger02
                                    {
                                        OFFSET  -2.639460   0.000000   0.000000
                                        CHANNELS 3 Zrotation Xrotation Yrotation
                                        End Site
                                        {
                                            OFFSET  -2.582190   0.000000   0.000000
                                        }
                                    }
                                }
                            }
                            JOINT RightFinger1
                            {
                                OFFSET  -8.364480   0.000000   3.252850
                                CHANNELS 3 Zrotation Xrotation Yrotation
                                JOINT RightFinger11
                                {
                                    OFFSET  -4.646930   0.000000   0.000000
                                    CHANNELS 3 Zrotation Xrotation Yrotation
                                    JOINT RightFinger12
                                    {
                                        OFFSET  -2.323470   0.000000   0.000000
                                        CHANNELS 3 Zrotation Xrotation Yrotation
                                        End Site
                                        {
                                            OFFSET  -2.273050   0.000000   0.000000
                                        }
                                    }
                                }
                            }
                            JOINT RightFinger2
                            {
                                OFFSET  -8.364480   0.000000   1.078090
                                CHANNELS 3 Zrotation Xrotation Yrotation
                                JOINT RightFinger21
                                {
                                    OFFSET  -5.111610   0.000000   0.000000
                                    CHANNELS 3 Zrotation Xrotation Yrotation
                                    JOINT RightFinger22
                                    {
                                        OFFSET  -2.788160   0.000000   0.000000
                                        CHANNELS 3 Zrotation Xrotation Yrotation
                                        End Site
                                        {
                                            OFFSET  -2.727660   0.000000   0.000000
                                        }
                                    }
                                }
                            }
                            JOINT RightFinger3
                            {
                                OFFSET  -7.899780   0.000000  -1.078090
                                CHANNELS 3 Zrotation Xrotation Yrotation
                                JOINT RightFinger31
                                {
                                    OFFSET  -4.646920   0.000000   0.000000
                                    CHANNELS 3 Zrotation Xrotation Yrotation
                                    JOINT RightFinger32
                                    {
                                        OFFSET  -2.323470   0.000000   0.000000
                                        CHANNELS 3 Zrotation Xrotation Yrotation
                                        End Site
                                        {
                                            OFFSET  -2.273050   0.000000   0.000000
                                        }
                                    }
                                }
                            }
                            JOINT RightFinger4
                            {
                                OFFSET  -7.435090   0.000000  -3.252850
                                CHANNELS 3 Zrotation Xrotation Yrotation
                                JOINT RightFinger41
                                {
                                    OFFSET  -3.717550   0.000000   0.000000
                                    CHANNELS 3 Zrotation Xrotation Yrotation
                                    JOINT RightFinger42
                                    {
                                        OFFSET  -1.858770   0.000000   0.000000
                                        CHANNELS 3 Zrotation Xrotation Yrotation
                                        End Site
                                        {
                                            OFFSET  -1.818440   0.000000   0.000000
                                        }
                                    }
                                }
                            }
                        }
                    }
                }
            }
        }
    }
    JOINT LeftHip
    {
        OFFSET   9.783010   0.000000   0.000000
        CHANNELS 3 Zrotation Xrotation Yrotation
        JOINT LeftKnee
        {
            OFFSET   0.000070 -41.789100   0.000028
            CHANNELS 3 Zrotation Xrotation Yrotation
            JOINT LeftAnkle
            {
                OFFSET   0.000087 -41.133200  -0.000100
                CHANNELS 3 Zrotation Xrotation Yrotation
                JOINT LeftToe
                {
                    OFFSET   0.000000  -6.358960  14.674500
                    CHANNELS 3 Zrotation Xrotation Yrotation
                    End Site
                    {
                        OFFSET   0.000000   0.000000   3.913200
                    }
                }
            }
        }
    }
    JOINT RightHip
    {
        OFFSET  -9.783020   0.000000   0.000000
        CHANNELS 3 Zrotation Xrotation Yrotation
        JOINT RightKnee
        {
            OFFSET   0.000044 -41.789100  -0.000870
            CHANNELS 3 Zrotation Xrotation Yrotation
            JOINT RightAnkle
            {
                OFFSET  -0.000090 -41.133200  -0.000245
                CHANNELS 3 Zrotation Xrotation Yrotation
                JOINT RightToe
                {
                    OFFSET   0.000000  -6.358960  14.674500
                    CHANNELS 3 Zrotation Xrotation Yrotation
                    End Site
                    {
                        OFFSET   0.000000   0.000000   3.913200
                    }
                }
            }
        }
    }
}
MOTION
Frames: 4
Frame Time:   0.016667
 -4.524680  89.839900  -1.534780  -2.371870 -16.010800  -4.538340  -4.136590  11.002500  -0.131400  -8.488910  21.984600   0.580535  -0.576437   1.635840   0.016345  -0.949878   3.316490  12.943200  -5.618020  -5.145620   2.181010 -66.404100  32.050700 -35.939100   3.348120 -10.824600 -57.481200  61.501300 -70.132400  75.124900  42.417200  34.112500 -74.775200  10.658900   0.008056  -0.001353  10.329400   0.003121  -0.005870 -18.482400   3.622870 -10.725000 -15.398100   0.000873  -0.002382 -10.778700   0.002511  -0.000521 -25.044400  -0.496422   1.045460 -25.045600  -0.003672  -0.000949 -16.680400  -0.004759   0.000000 -21.501500  -2.399240   6.039030 -21.621900  -0.004084  -0.001139 -14.400200  -0.000862  -0.004371 -22.362200  -3.703350   8.903030 -33.968800  -0.005584  -0.003420 -22.623200   0.002695  -0.002425   8.809530  -4.320060  10.443800  40.013200  -8.966140  57.129300 -23.273600 -14.483600  63.079800 -52.024400  48.046200  36.800000 -33.766700  22.883400  66.443100  27.512600   0.005713  -0.002828   8.756320   0.003101   0.002119  23.463700  -0.435163  -0.984596  19.204400  -0.001025  -0.001790  13.443100  -0.001100   0.000216  18.321600  -2.451390  -7.368980  18.482200   0.006694  -0.004084  12.309200  -0.001442  -0.004625  15.861500  -3.554520 -12.332900  16.246300   0.009993  -0.000306  10.820000   0.006619  -0.001342  25.849700  -6.908920 -13.950900  40.050000   0.005950  -0.007548  26.673300   0.004302  -0.008613   3.671540  15.208900   5.260280   1.535640   6.311250  14.354500  -8.547380  -5.823860   4.486630   0.000000   0.000000  -0.000000   4.083360  14.489300 -13.056400   0.082280   4.214400  -7.411270 -11.124500  -0.906748   4.020550  -0.000000   0.000000   0.000000
 -4.465660  89.860700  -1.512200  -2.179400 -16.004100  -3.809660  -4.175820  10.975000   0.190312  -8.629730  21.908200   1.247100  -0.546241   1.539030   0.014616  -0.898475   3.119870  12.507900  -5.708210  -5.395330   2.314490 -66.630000  31.495200 -34.813300   3.065990 -10.885600 -56.340000  61.324700 -69.577300  74.674000  41.244700  33.418100 -74.597500   8.346330  -0.017379   0.026271   9.173110  -0.007134   0.011916 -18.594200   3.710160 -10.906700 -15.504600   0.000821  -0.002543 -10.853200   0.002529  -0.000519 -25.232800  -0.399768   0.838170 -25.235400  -0.003765  -0.001805 -16.806700  -0.004759  -0.000046 -21.678100  -2.254220   5.624410 -21.793400  -0.004207  -0.001282 -14.514400  -0.000861  -0.004371 -22.524000  -3.604120   8.595760 -34.180500  -0.005926  -0.003215 -22.764200   0.002735  -0.002475   8.758480  -4.310870  10.924600  38.856000  -7.791100  57.122000 -23.428300 -13.328400  62.603700 -50.264300  48.987900  34.949100 -33.932100  22.886100  66.497000  27.155000   0.007444  -0.003780   8.577510   0.002911   0.002005  23.446100  -0.537048  -1.227510  19.193000  -0.000924  -0.001695  13.435200  -0.001025   0.000362  18.051300  -2.489700  -7.592830  18.219700   0.005062  -0.003810  12.134400  -0.001411  -0.004517  15.479200  -3.495420 -12.441200  15.858600   0.005789  -0.000071  10.561800   0.004425  -0.001113  25.295000  -6.946480 -14.351000  39.269000   0.006561  -0.004734  26.153200   0.004584  -0.005479   3.637310  15.175900   5.111330   1.607360   6.103010  13.920900  -8.517870  -5.699450   4.396020  -0.000000   0.000000   0.000000   4.059450  14.585700 -13.069300   0.118877   4.074520  -7.658910 -11.096300  -0.830023   3.629830   0.000000   0.000000  -0.000000
 -4.400630  89.879800  -1.486290  -1.985710 -15.995100  -3.057960  -4.198400  10.962200   0.490154  -8.740490  21.855900   1.866810  -0.519201   1.422050   0.012562  -0.853114   2.882280  12.082200  -5.822970  -5.644570   2.416740 -66.691700  30.957500 -33.790700   2.774700 -11.106500 -55.218200  60.975100 -69.111400  73.973900  40.133700  32.776400 -74.450900   5.787230  -0.042815   0.053894   7.893600  -0.017388   0.029701 -18.799400   3.796380 -11.015800 -15.680800   0.000772  -0.002702 -10.976500   0.002547  -0.000516 -25.467900  -0.326616   0.676702 -25.469900  -0.003885  -0.002991 -16.962900  -0.004759  -0.000092 -21.934200  -2.130280   5.253780 -22.029500  -0.004338  -0.001427 -14.671600  -0.000860  -0.004371 -22.765900  -3.525200   8.317400 -34.530300  -0.006121  -0.003012 -22.997100   0.002776  -0.002523   8.706840  -4.286650  11.437100  37.781900  -6.522900  57.126600 -23.590100 -12.165300  62.117600 -48.459500  49.757900  32.946900 -34.041500  22.866300  66.529100  26.862200   0.009997  -0.005134   8.431100   0.002634   0.001874  23.346200  -0.639773  -1.481420  19.113500  -0.000836  -0.001605  13.379500  -0.000940   0.000503  17.834200  -2.534070  -7.818580  18.011200   0.003488  -0.003531  11.995500  -0.001384  -0.004413  15.205300  -3.443850 -12.500400  15.577700   0.002992   0.000157  10.374700   0.001453  -0.000887  24.859100  -6.994460 -14.714000  38.651500   0.008188  -0.002007  25.741900   0.004862  -0.002895   3.598130  15.135700   4.979930   1.679360   5.900780  13.451000  -8.482030  -5.577630   4.305460  -0.000000   0.000000  -0.000000   4.061920  14.687600 -13.076500   0.148044   3.931180  -7.952510 -11.064600  -0.755312   3.206260   0.000000   0.000000  -0.000000
 -4.331850  89.895500  -1.459430  -1.780600 -15.980100  -2.283920  -4.211550  10.962500   0.730360  -8.815910  21.833200   2.362740  -0.506713   1.278090   0.010670  -0.833283   2.590340  11.759600  -5.975710  -5.882300   2.595970 -66.585100  30.418300 -32.896600   2.428840 -11.442600 -54.168000  60.432300 -68.723800  72.968100  39.635900  32.273600 -74.085000   4.683900  -0.042529   0.053552   7.341960  -0.017261   0.029513 -18.974000   3.840040 -11.012900 -15.826900   0.000724  -0.002849 -11.078800   0.002565  -0.000510 -25.665600  -0.302465   0.618583 -25.667400  -0.004023  -0.004098 -17.094400  -0.004759  -0.000145 -22.131000  -2.064090   5.038070 -22.219000  -0.004475  -0.001555 -14.797900  -0.000860  -0.004370 -22.962500  -3.485760   8.147620 -34.813000  -0.006375  -0.002824 -23.185400   0.002821  -0.002570   8.722340  -4.221820  11.807500  36.850100  -5.156850  57.291300 -23.777700 -11.063800  61.580200 -46.284900  50.250000  30.757600 -34.041100  22.652000  66.744000  26.627000   0.011555  -0.005791   8.313490   0.002220   0.001726  22.930200  -0.737676  -1.738790  18.774600  -0.000769  -0.001529  13.142300  -0.000846   0.000647  17.681900  -2.580400  -8.022950  17.866900   0.001958  -0.003256  11.899400  -0.001355  -0.004304  15.053100  -3.387740 -12.449300  15.414500   0.002357   0.000385  10.266100   0.000071  -0.000663  24.690100  -7.082920 -14.998800  38.435500   0.011644  -0.000891  25.598100   0.005135  -0.001947   3.544770  15.084100   4.884250   1.757750   5.699690  12.945900  -8.444220  -5.449070   4.200810  -0.000000   0.000000  -0.000000   4.077430  14.788600 -12.988500   0.164650   3.791280  -8.314710 -11.034400  -0.688393   2.735120  -0.000000   0.000000   0.000000
